<?xml version="1.0" encoding="UTF-8" standalone="no"?>
<!-- Created with Inkscape (http://www.inkscape.org/) -->

<svg
   width="2048.001"
   height="267.40176"
   viewBox="0 0 541.86694 70.750049"
   version="1.1"
   id="svg6686"
   inkscape:version="1.2.2 (732a01da63, 2022-12-09)"
   inkscape:export-xdpi="96"
   inkscape:export-ydpi="96"
   xmlns:inkscape="http://www.inkscape.org/namespaces/inkscape"
   xmlns:sodipodi="http://sodipodi.sourceforge.net/DTD/sodipodi-0.dtd"
   xmlns="http://www.w3.org/2000/svg"
   xmlns:svg="http://www.w3.org/2000/svg">
   <sodipodi:namedview
      id="namedview6688"
      pagecolor="#ffffff"
      bordercolor="#000000"
      borderopacity="0.25"
      inkscape:showpageshadow="2"
      inkscape:pageopacity="0.0"
      inkscape:pagecheckerboard="0"
      inkscape:deskcolor="#d1d1d1"
      inkscape:document-units="mm"
      showgrid="false"
      inkscape:zoom="0.39063903"
      inkscape:cx="773.09223"
      inkscape:cy="319.98851"
      inkscape:window-width="1920"
      inkscape:window-height="1009"
      inkscape:window-x="2552"
      inkscape:window-y="262"
      inkscape:window-maximized="1"
      inkscape:current-layer="text113" />
   <defs
      id="defs6683" />
   <g
      inkscape:label="Layer 1"
      inkscape:groupmode="layer"
      id="layer1"
      transform="translate(1.2424327e-8,2.6691474e-5)">
      <g
         aria-label="web reactionz"
         transform="scale(1.0021424,0.99786219)"
         id="text113"
         style="font-size:95.6837px;stroke-width:7.97365">
         <path
            d="m 49.659841,70.614544 q -4.018716,0 -7.654696,-1.913674 -3.34893,-1.722306 -6.028074,-4.784185 -0.478418,-0.478418 -0.861153,-0.956837 -0.382735,-0.574102 -0.76547,-1.148204 -0.765469,1.148204 -1.530939,2.105041 -2.679143,3.061879 -6.028073,4.784185 -3.827348,1.913674 -7.75038,1.913674 -3.827348,0 -7.654696,-1.913674 Q 8.0374308,66.978564 5.3582872,63.916685 2.7748273,60.854807 1.3395718,56.931775 -1.2397766e-8,53.008743 -1.2397766e-8,48.702977 v -0.09568 -21.911567 q 0,-1.626623 1.052520712397766,-2.679144 1.1482044,-1.148204 2.7748273,-1.148204 1.6266229,0 2.6791436,1.148204 1.1482044,1.052521 1.1482044,2.679144 v 21.911567 q 0,2.966195 0.8611533,5.645338 0.956837,2.679144 2.6791437,4.688502 1.626623,1.913674 3.635981,2.966195 2.009357,1.05252 4.210082,1.05252 4.497134,0 7.941748,-4.018715 1.722306,-2.009358 2.583459,-4.688502 Q 30.5231,51.573488 30.5231,48.607293 V 26.695726 q 0,-1.626623 1.052521,-2.679144 1.148205,-1.148204 2.774827,-1.148204 1.626623,0 2.679144,1.148204 1.148205,1.052521 1.148205,2.679144 v 21.911567 q 0,2.966195 0.956837,5.645338 0.956837,2.679144 2.679143,4.688502 1.626623,1.913674 3.635981,2.966195 2.009357,1.05252 4.210083,1.05252 4.497134,0 7.941747,-4.018715 1.722306,-2.009358 2.58346,-4.688502 0.956837,-2.679143 0.956837,-5.645338 V 26.695726 q 0,-1.626623 1.05252,-2.679144 1.148205,-1.148204 2.774828,-1.148204 1.626623,0 2.679143,1.148204 1.148205,1.052521 1.148205,2.679144 v 21.911567 0.09568 q 0,4.305766 -1.435256,8.228798 -1.339572,3.923032 -3.923032,6.98491 -2.583459,3.061879 -6.123756,4.784185 -3.635981,1.913674 -7.654696,1.913674 z"
            style="fill:#ff595e"
            id="path6713" />
         <path
            d="m 95.205229,69.944758 q -4.592818,0 -8.707217,-1.626623 -4.114399,-1.722306 -7.367645,-4.879868 -3.348929,-3.253246 -5.262603,-7.367645 -1.817991,-4.210083 -1.913674,-8.898584 -0.09568,-4.688502 1.530939,-8.898585 1.722307,-4.305766 4.975552,-7.654696 3.157563,-3.348929 7.367645,-5.166919 4.210083,-1.817991 8.898584,-2.009358 4.592818,-0.09568 8.89858,1.626623 4.30577,1.626623 7.6547,4.879869 l 0.0957,0.09568 q 1.05253,1.243888 1.05253,2.679144 0,1.435255 -1.05253,2.679143 L 87.646217,60.185021 q 2.200725,1.243888 4.688501,1.722307 2.487776,0.478418 4.975552,0.09568 2.487777,-0.382735 4.78419,-1.530939 2.2964,-1.148204 4.21008,-3.061878 1.1482,-1.148205 2.77483,-1.148205 1.62662,-0.09568 2.77482,0.956837 1.14821,1.148205 1.14821,2.774828 0,1.626622 -1.05252,2.774827 -3.25325,3.348929 -7.46333,5.16692 -4.1144,1.81799 -8.802903,1.913674 -0.191367,0 -0.287051,0.09568 -0.09568,0 -0.191367,0 z m 0,-38.751898 q -3.061878,0 -6.028073,1.243888 -2.870511,1.148204 -5.16692,3.540297 -1.913674,1.913674 -2.966195,4.305766 -1.05252,2.392093 -1.339571,4.879869 -0.191368,2.487776 0.382734,4.975552 0.574103,2.487777 1.913674,4.688502 L 102.76424,33.202217 Q 99.128261,31.19286 95.205229,31.19286 Z"
            style="fill:#ff595e"
            id="path6715" />
         <path
            d="m 137.78441,70.231809 q -4.40145,0 -8.32448,-1.626622 -3.92303,-1.722307 -6.98491,-4.784185 -3.06188,-3.061879 -4.6885,-6.984911 -1.62662,-3.923031 -1.62662,-8.228798 V 48.033191 3.923005 q 0,-1.6266229 1.05252,-2.6791436 1.1482,-1.14820445 2.77482,-1.14820445 1.62663,0 2.67915,1.14820445 1.1482,1.0525207 1.1482,2.6791436 v 28.131008 q 2.9662,-2.487776 6.50649,-3.731664 3.5403,-1.339572 7.46333,-1.339572 4.30577,0 8.2288,1.626623 4.01872,1.626623 7.0806,4.688501 3.06187,3.061878 4.6885,6.98491 1.62662,3.923032 1.62662,8.324482 0,4.305767 -1.62662,8.228798 -1.62663,3.923032 -4.6885,6.984911 -3.06188,3.061878 -7.0806,4.784185 -3.92303,1.626622 -8.2288,1.626622 z M 123.81459,48.798661 q 0,2.870511 1.14821,5.358287 1.1482,2.487776 2.96619,4.40145 1.91368,1.81799 4.40145,2.966195 2.58346,1.05252 5.45397,1.05252 2.87051,0 5.35829,-1.05252 2.58346,-1.148205 4.49713,-3.061879 1.91368,-1.913674 2.9662,-4.40145 1.1482,-2.58346 1.1482,-5.453971 0,-2.870511 -1.1482,-5.453971 -1.05252,-2.58346 -2.9662,-4.40145 -1.91367,-1.913674 -4.49713,-2.966195 -2.48778,-1.148204 -5.35829,-1.148204 -2.87051,0 -5.35828,1.052521 -2.48778,1.05252 -4.40145,2.870511 -1.91368,1.81799 -3.06188,4.305766 -1.05252,2.487776 -1.14821,5.262604 v 0.478418 z"
            style="fill:#ff595e"
            id="path6717" />
         <path
            d="m 190.41045,70.518861 q -1.62663,0 -2.77483,-1.052521 -1.05252,-1.148205 -1.05252,-2.774827 V 44.875629 q 0,-4.40145 1.62662,-8.420166 1.62663,-4.018715 4.78419,-7.176277 3.06188,-3.061879 7.08059,-4.688502 4.01872,-1.722306 8.42017,-1.722306 1.62662,0 2.67914,1.148204 1.1482,1.052521 1.1482,2.679144 0,1.626623 -1.1482,2.774827 -1.05252,1.052521 -2.67914,1.052521 -2.9662,0 -5.54966,1.148204 -2.58346,1.148205 -4.59282,3.061879 -1.91367,1.913674 -3.06187,4.592817 -1.05252,2.58346 -1.05252,5.549655 v 21.815884 q 0,1.626622 -1.14821,2.774827 -1.05252,1.052521 -2.67914,1.052521 z"
            style="fill:#ff595e"
            id="path6719" />
         <path
            d="m 238.73078,69.944758 q -4.59282,0 -8.70722,-1.626623 -4.1144,-1.722306 -7.36764,-4.879868 -3.34893,-3.253246 -5.26261,-7.367645 -1.81799,-4.210083 -1.91367,-8.898584 -0.0957,-4.688502 1.53094,-8.898585 1.72231,-4.305766 4.97555,-7.654696 3.15756,-3.348929 7.36765,-5.166919 4.21008,-1.817991 8.89858,-2.009358 4.59282,-0.09568 8.89859,1.626623 4.30576,1.626623 7.65469,4.879869 l 0.0957,0.09568 q 1.05252,1.243888 1.05252,2.679144 0,1.435255 -1.05252,2.679143 l -23.72956,24.782079 q 2.20072,1.243888 4.6885,1.722307 2.48778,0.478418 4.97555,0.09568 2.48778,-0.382735 4.78419,-1.530939 2.29641,-1.148204 4.21008,-3.061878 1.1482,-1.148205 2.77483,-1.148205 1.62662,-0.09568 2.77482,0.956837 1.14821,1.148205 1.14821,2.774828 0,1.626622 -1.05252,2.774827 -3.25325,3.348929 -7.46333,5.16692 -4.1144,1.81799 -8.8029,1.913674 -0.19137,0 -0.28705,0.09568 -0.0957,0 -0.19137,0 z m 0,-38.751898 q -3.06188,0 -6.02807,1.243888 -2.87051,1.148204 -5.16692,3.540297 -1.91368,1.913674 -2.9662,4.305766 -1.05252,2.392093 -1.33957,4.879869 -0.19137,2.487776 0.38274,4.975552 0.5741,2.487777 1.91367,4.688502 l 20.76336,-21.624517 q -3.63598,-2.009357 -7.55901,-2.009357 z"
            style="fill:#ff595e"
            id="path6721" />
         <path
            d="m 303.22154,70.710228 q -1.62662,0 -2.77483,-1.052521 -1.05252,-1.148204 -1.05252,-2.774827 v -2.200725 q -3.34893,2.966195 -7.46333,4.497134 -4.01871,1.530939 -8.51585,1.530939 -4.78418,0 -9.08995,-1.722307 -4.30577,-1.722306 -7.65469,-4.975552 -3.34893,-3.34893 -5.16692,-7.559012 -1.81799,-4.210083 -1.81799,-8.898585 0,-4.688501 1.81799,-8.898584 1.81799,-4.210083 5.16692,-7.559012 3.34892,-3.34893 7.65469,-5.071236 4.30577,-1.722307 9.08995,-1.722307 4.78419,0 9.08995,1.722307 4.30577,1.722306 7.6547,5.071236 3.34893,3.348929 5.16692,7.559012 1.81799,4.210083 1.81799,8.898584 0,0.478419 -0.0957,1.052521 0,0.478419 0,1.052521 V 66.88288 q 0,1.626623 -1.14821,2.774827 -1.05252,1.052521 -2.67914,1.052521 z M 283.41501,31.958329 q -3.34893,0 -6.31512,1.243888 -2.87051,1.243888 -5.07124,3.34893 -2.10504,2.105041 -3.44461,4.975552 -1.24389,2.774828 -1.24389,6.028073 0,3.157563 1.24389,6.028074 1.33957,2.774827 3.44461,4.879868 2.20073,2.105042 5.07124,3.34893 2.96619,1.243888 6.31512,1.243888 3.06188,0 5.83671,-1.052521 2.77483,-1.05252 4.87987,-2.870511 2.20072,-1.913674 3.54029,-4.40145 1.43526,-2.58346 1.72231,-5.453971 v -3.253246 -0.191367 q -0.28705,-2.870511 -1.72231,-5.358287 -1.33957,-2.58346 -3.54029,-4.401451 -2.10504,-1.913674 -4.87987,-2.966194 -2.77483,-1.148205 -5.83671,-1.148205 z"
            style="fill:#ff595e"
            id="path6723" />
         <path
            d="m 334.03166,70.710228 q -4.59282,0 -8.8029,-1.626623 -4.1144,-1.722307 -7.46333,-4.784185 v -0.09568 q -3.44461,-3.253245 -5.35828,-7.463328 -1.91368,-4.210083 -2.10505,-9.089952 -0.19136,-4.784185 1.43526,-9.089951 1.62662,-4.401451 4.97555,-7.941748 3.25325,-3.444613 7.46333,-5.358287 4.30577,-1.913674 9.08995,-2.105041 4.78419,-0.191368 9.18564,1.530939 4.40145,1.626623 7.84606,4.879869 1.14821,1.05252 1.14821,2.679143 0.0957,1.626623 -0.95684,2.774828 -1.05252,1.148204 -2.67914,1.243888 -1.62663,0 -2.77483,-1.052521 -4.87987,-4.592818 -11.48205,-4.40145 -3.25324,0.191367 -6.21944,1.435255 -2.87051,1.243888 -5.07123,3.635981 -4.59282,4.879869 -4.30577,11.577728 0.19137,6.602175 5.07124,11.194993 2.39209,2.296409 5.35828,3.444613 3.06188,1.052521 6.12376,0.956837 3.06188,-0.09568 6.02807,-1.339572 2.9662,-1.339572 5.26261,-3.731664 1.05252,-1.148205 2.58346,-1.148205 1.62662,-0.09568 2.77482,0.956837 1.14821,1.052521 1.14821,2.679144 0.0957,1.530939 -0.95684,2.679144 -3.25324,3.540297 -7.55901,5.453971 -4.21008,1.913674 -8.99427,2.105041 z"
            style="fill:#ff595e"
            id="path6725" />
         <path
            d="m 376.32383,70.614544 q -4.21008,0 -8.03743,-1.530939 -3.73167,-1.626623 -6.69786,-4.592818 -2.9662,-2.966194 -4.59282,-6.697859 -1.53094,-3.731664 -1.53094,-7.941747 V 3.8273213 q 0,-1.6266229 1.05252,-2.6791436 1.14821,-1.148204448657 2.77483,-1.148204448657 1.62662,0 2.67914,1.148204448657 1.14821,1.0525207 1.14821,2.6791436 V 28.322349 h 13.20435 q 1.62662,0 2.67914,1.148204 1.14821,1.052521 1.14821,2.679144 0,1.626623 -1.14821,2.774827 -1.05252,1.052521 -2.67914,1.052521 h -13.20435 v 13.874136 q 0,2.679144 1.05252,5.071236 1.05252,2.392093 2.77483,4.210083 1.81799,1.722307 4.21008,2.774828 2.39209,1.05252 5.16692,1.05252 1.62662,0 2.67914,1.148205 1.14821,1.05252 1.14821,2.679143 0,1.626623 -1.14821,2.774828 -1.05252,1.05252 -2.67914,1.05252 z"
            style="fill:#ff595e"
            id="path6727" />
         <path
            d="m 387.23185,69.179289 q -1.62662,0 -2.77483,-1.052521 -1.05252,-1.148204 -1.05252,-2.774827 v -38.27348 q 0,-1.626623 1.05252,-2.679144 1.14821,-1.148205 2.77483,-1.148205 1.62662,0 2.67914,1.148205 1.14821,1.052521 1.14821,2.679144 v 38.27348 q 0,1.626623 -1.14821,2.774827 -1.05252,1.052521 -2.67914,1.052521 z m 4.21008,-54.826761 q 0,1.722307 -1.24389,2.966195 -1.1482,1.148204 -2.87051,1.148204 -1.7223,0 -2.96619,-1.148204 -1.14821,-1.243888 -1.14821,-2.966195 0,-1.722306 1.14821,-2.870511 1.24389,-1.243888 2.96619,-1.243888 1.72231,0 2.87051,1.243888 1.24389,1.148205 1.24389,2.870511 z"
            style="fill:#ff595e"
            id="path6729" />
         <path
            d="m 418.32906,70.614544 q -4.87987,0 -9.18564,-1.81799 -4.30577,-1.81799 -7.6547,-5.16692 -3.34892,-3.348929 -5.16692,-7.654696 -1.81799,-4.40145 -1.81799,-9.185635 0,-4.879869 1.81799,-9.185635 1.818,-4.305767 5.16692,-7.654696 3.34893,-3.34893 7.6547,-5.16692 4.30577,-1.817991 9.18564,-1.817991 4.78418,0 9.08995,1.817991 4.40145,1.81799 7.75038,5.16692 3.34893,3.348929 5.07123,7.654696 1.81799,4.305766 1.81799,9.185635 0,4.784185 -1.81799,9.185635 -1.7223,4.305767 -5.07123,7.654696 -3.34893,3.34893 -7.75038,5.16692 -4.30577,1.81799 -9.08995,1.81799 z m 0,-39.900103 q -3.34893,0 -6.31513,1.243888 -2.87051,1.243888 -5.07123,3.444613 -2.20073,2.200726 -3.5403,5.16692 -1.24389,2.870511 -1.24389,6.219441 0,3.348929 1.24389,6.315124 1.33957,2.870511 3.5403,5.071236 2.20072,2.200725 5.07123,3.444613 2.9662,1.243889 6.31513,1.243889 3.34893,0 6.21944,-1.243889 2.96619,-1.243888 5.16692,-3.444613 2.20072,-2.200725 3.44461,-5.071236 1.24389,-2.966195 1.24389,-6.315124 0,-3.34893 -1.24389,-6.219441 -1.24389,-2.966194 -3.44461,-5.16692 -2.20073,-2.200725 -5.16692,-3.444613 -2.87051,-1.243888 -6.21944,-1.243888 z"
            style="fill:#ff595e"
            id="path6731" />
         <path
            d="m 485.97736,70.901595 q -1.62662,0 -2.77482,-1.05252 -1.05253,-1.148205 -1.05253,-2.774828 V 44.875629 q 0,-2.966195 -1.1482,-5.645339 -1.1482,-2.679143 -3.15756,-4.592817 -2.00936,-2.009358 -4.6885,-3.157562 -2.67915,-1.148205 -5.64534,-1.148205 -3.06188,0 -5.74102,1.148205 -2.58346,1.148204 -4.59282,3.157562 -2.00936,1.913674 -3.15756,4.592817 -1.14821,2.679144 -1.14821,5.645339 0,0.191367 0,0 0.0957,-0.287051 0,-0.09568 l -0.0957,22.294302 q 0,1.626623 -1.14821,2.774828 -1.05252,1.05252 -2.67914,1.05252 -1.62662,0 -2.77483,-1.05252 -1.05252,-1.148205 -1.05252,-2.774828 V 44.875629 q 0,-0.191368 0,-0.382735 0.0957,-0.287051 0.0957,-0.478418 0.19136,-4.305767 1.81799,-8.037431 1.7223,-3.827348 4.6885,-6.793543 3.15756,-3.157562 7.17628,-4.784185 4.11439,-1.722307 8.61153,-1.722307 4.49713,0 8.51585,1.722307 4.01871,1.626623 7.17628,4.784185 3.15756,3.157562 4.78418,7.176277 1.72231,4.018716 1.81799,8.51585 v 22.198618 q 0,1.626623 -1.1482,2.774828 -1.05252,1.05252 -2.67915,1.05252 z"
            style="fill:#ff595e"
            id="path6733" />
         <path
            d="M 537.07251,70.423177 H 496.5983 q -1.53094,0 -2.67914,-1.052521 -1.05252,-1.148204 -1.05252,-2.774827 0,-0.09568 0,-0.09568 0.0957,-0.09568 0.0957,-0.191367 -0.19137,-1.817991 1.14821,-3.157562 L 527.79119,30.523074 H 496.5983 q -1.53094,0 -2.67914,-1.052521 -1.05252,-1.148204 -1.05252,-2.774827 0,-1.626623 1.05252,-2.679144 1.1482,-1.148204 2.67914,-1.148204 h 40.47421 0.0957 q 0.76547,0 1.33957,0.287051 0.66979,0.287051 1.24389,0.956837 0.0957,0.09568 0.0957,0.09568 0.38273,0.574103 0.66978,1.052521 0.19137,0.76547 0.19137,1.243888 v 0.191368 q 0,0.861153 -0.28705,1.530939 -0.38274,0.669786 -0.76547,1.243888 h -0.0957 l -34.44613,33.393612 h 31.95836 q 1.53094,0 2.58346,1.05252 1.05252,1.052521 1.05252,2.679144 0,1.626623 -1.05252,2.774827 -1.05252,1.052521 -2.58346,1.052521 z"
            style="fill:#ff595e"
            id="path6735" />
      </g>
   </g>
</svg>
