<?xml version="1.0" encoding="UTF-8" standalone="no"?>
<!-- Created with Inkscape (http://www.inkscape.org/) -->

<svg
   width="2048.001"
   height="880.4527"
   viewBox="0 0 541.86692 232.95311"
   version="1.1"
   id="svg6824"
   inkscape:version="1.2.2 (732a01da63, 2022-12-09)"
   xmlns:inkscape="http://www.inkscape.org/namespaces/inkscape"
   xmlns:sodipodi="http://sodipodi.sourceforge.net/DTD/sodipodi-0.dtd"
   xmlns="http://www.w3.org/2000/svg"
   xmlns:svg="http://www.w3.org/2000/svg">
   <sodipodi:namedview
      id="namedview6826"
      pagecolor="#ffffff"
      bordercolor="#000000"
      borderopacity="0.25"
      inkscape:showpageshadow="2"
      inkscape:pageopacity="0.0"
      inkscape:pagecheckerboard="true"
      inkscape:deskcolor="#d1d1d1"
      inkscape:document-units="mm"
      showgrid="false"
      inkscape:zoom="0.256706"
      inkscape:cx="823.89971"
      inkscape:cy="525.89343"
      inkscape:window-width="1920"
      inkscape:window-height="1009"
      inkscape:window-x="4472"
      inkscape:window-y="253"
      inkscape:window-maximized="1"
      inkscape:current-layer="g7044" />
   <defs
      id="defs6821" />
   <g
      inkscape:label="Layer 1"
      inkscape:groupmode="layer"
      id="layer1">
      <g
         id="g7044"
         transform="translate(0.348518,-2.0270573)">
         <g
            id="g7025"
            transform="matrix(1.4937688,0,0,1.4937688,61.912829,1.0225884)">
            <rect
               style="fill:#ff595e;fill-opacity:1;stroke-width:0.515534;stroke-dasharray:none"
               id="rect4157"
               width="82.302765"
               height="82.302765"
               x="98.543587"
               y="0.67243934"
               ry="8.8709574" />
            <g
               aria-label="w"
               transform="matrix(2.0081779,0,0,1.8846032,82.772996,-31.361572)"
               id="text6339"
               style="fill:#ff595e;stroke-width:0.593235">
               <path
                  d="m 34.391333,48.29124 q -1.592115,0 -3.0326,-0.75815 -1.326763,-0.682335 -2.388173,-1.895375 -0.189537,-0.189538 -0.341167,-0.379075 -0.15163,-0.227445 -0.30326,-0.45489 -0.30326,0.45489 -0.60652,0.833965 -1.06141,1.21304 -2.388173,1.895375 -1.5163,0.75815 -3.070507,0.75815 -1.5163,0 -3.032601,-0.75815 Q 17.90157,46.850755 16.84016,45.637715 15.816657,44.424675 15.248045,42.870467 14.71734,41.31626 14.71734,39.610422 v -0.03791 -8.680818 q 0,-0.644428 0.416982,-1.06141 0.45489,-0.45489 1.099318,-0.45489 0.644427,0 1.06141,0.45489 0.45489,0.416982 0.45489,1.06141 v 8.680818 q 0,1.175132 0.341167,2.236542 0.379075,1.06141 1.06141,1.857468 0.644428,0.75815 1.440486,1.175132 0.796057,0.416983 1.66793,0.416983 1.781652,0 3.146322,-1.592115 0.682335,-0.796058 1.023503,-1.857468 0.379075,-1.06141 0.379075,-2.236542 v -8.680818 q 0,-0.644428 0.416982,-1.06141 0.45489,-0.45489 1.099318,-0.45489 0.644427,0 1.06141,0.45489 0.45489,0.416982 0.45489,1.06141 v 8.680818 q 0,1.175132 0.379075,2.236542 0.379075,1.06141 1.06141,1.857468 0.644427,0.75815 1.440485,1.175132 0.796057,0.416983 1.66793,0.416983 1.781653,0 3.146323,-1.592115 0.682335,-0.796058 1.023502,-1.857468 0.379075,-1.06141 0.379075,-2.236542 v -8.680818 q 0,-0.644428 0.416983,-1.06141 0.45489,-0.45489 1.099317,-0.45489 0.644428,0 1.06141,0.45489 0.45489,0.416982 0.45489,1.06141 v 8.680818 0.03791 q 0,1.705838 -0.568612,3.260045 -0.530705,1.554208 -1.554208,2.767248 -1.023502,1.21304 -2.42608,1.895375 -1.440485,0.75815 -3.0326,0.75815 z"
                  style="fill:#ffffff;stroke-width:0.593238"
                  id="path6810" />
            </g>
         </g>
         <g
            id="g7020"
            transform="translate(58.925884,85.478574)">
            <path
               d="m -9.5081698,149.21515 q -4.0273252,0 -7.6710952,-1.90958 -3.356105,-1.71863 -6.040989,-4.77396 -0.479443,-0.47739 -0.862998,-0.95479 -0.383555,-0.57287 -0.76711,-1.14575 -0.767109,1.14575 -1.534218,2.10054 -2.684883,3.05533 -6.040988,4.77396 -3.835548,1.90958 -7.766984,1.90958 -3.835548,0 -7.671096,-1.90958 -3.356104,-1.71863 -6.040987,-4.77396 -2.588995,-3.05533 -4.027325,-6.96998 -1.342442,-3.91464 -1.342442,-8.2112 v -0.0955 -21.86472 q 0,-1.62315 1.054776,-2.67342 1.150664,-1.14575 2.780772,-1.14575 1.630107,0 2.684883,1.14575 1.150664,1.05027 1.150664,2.67342 v 21.86472 q 0,2.95986 0.862999,5.63327 0.958887,2.67342 2.684883,4.67848 1.630108,1.90958 3.643771,2.95985 2.013662,1.05027 4.219102,1.05027 4.506768,0 7.958762,-4.01012 1.725996,-2.00506 2.588994,-4.67848 0.958887,-2.67342 0.958887,-5.63327 V 105.3902 q 0,-1.62314 1.054776,-2.67341 1.150665,-1.14575 2.780771,-1.14575 1.630108,0 2.684884,1.14575 1.150665,1.05027 1.150665,2.67341 v 21.86473 q 0,2.95985 0.958887,5.63327 0.958887,2.67341 2.684883,4.67848 1.630108,1.90958 3.643771,2.95985 2.013661,1.05027 4.2191022,1.05027 4.5067687,0 7.9587614,-4.01012 1.72599591,-2.00507 2.5889948,-4.67848 0.958887,-2.67342 0.958887,-5.63327 V 105.3902 q 0,-1.62314 1.0547749,-2.67341 1.1506649,-1.14575 2.7807728,-1.14575 1.6301079,0 2.6848828,1.14575 1.1506649,1.05027 1.1506649,2.67341 v 21.86473 0.0955 q 0,4.29656 -1.4383309,8.21121 -1.3424419,3.91465 -3.9314367,6.96998 -2.5889938,3.05533 -6.1368755,4.77395 -3.6437708,1.90959 -7.6710955,1.90959 z"
               style="fill:#ff595e;stroke-width:7.97365"
               id="path6713" />
            <path
               d="m 36.134795,148.5468 q -4.602658,0 -8.725872,-1.62315 -4.123213,-1.71862 -7.383429,-4.86943 -3.356104,-3.24629 -5.273878,-7.3519 -1.821886,-4.20108 -1.917774,-8.87956 -0.09589,-4.67848 1.534219,-8.87956 1.725997,-4.29656 4.986212,-7.63833 3.164328,-3.34177 7.383429,-5.15587 4.219103,-1.81411 8.917649,-2.00507 4.602657,-0.0955 8.917644,1.62315 4.314995,1.62314 7.671099,4.86944 l 0.09591,0.0955 q 1.054785,1.24123 1.054785,2.67342 0,1.43218 -1.054785,2.67341 l -23.780411,24.72911 q 2.20544,1.24122 4.698546,1.71862 2.493106,0.4774 4.986212,0.0955 2.493106,-0.38192 4.794439,-1.52767 2.30132,-1.14575 4.2191,-3.05533 1.15066,-1.14575 2.780775,-1.14575 1.630105,-0.0955 2.780764,0.95479 1.15067,1.14575 1.15067,2.76889 0,1.62315 -1.054775,2.7689 -3.260219,3.34177 -7.479319,5.15587 -4.123215,1.81411 -8.821762,1.90959 -0.191777,0 -0.287666,0.0955 -0.09588,0 -0.191777,0 z m 0,-38.66906 q -3.068438,0 -6.040988,1.24123 -2.876661,1.14575 -5.177989,3.53273 -1.917774,1.90958 -2.97255,4.29656 -1.054775,2.38698 -1.342441,4.86944 -0.191778,2.48246 0.383554,4.96491 0.575333,2.48246 1.917774,4.67848 L 43.71,111.88281 q -3.643769,-2.00507 -7.575205,-2.00507 z"
               style="fill:#ff595e;stroke-width:7.97365"
               id="path6715" />
            <path
               d="m 78.805197,148.83324 q -4.410879,0 -8.342314,-1.62315 -3.931435,-1.71862 -6.999875,-4.77396 -3.068439,-3.05533 -4.698544,-6.96998 -1.630105,-3.91464 -1.630105,-8.2112 v -0.57288 -44.015883 q 0,-1.623145 1.054775,-2.673416 1.15066,-1.14575 2.780765,-1.14575 1.630115,0 2.684889,1.14575 1.15066,1.050271 1.15066,2.673416 v 28.070873 q 2.972555,-2.48246 6.52043,-3.72369 3.547885,-1.33671 7.479319,-1.33671 4.314995,0 8.24643,1.62315 4.027329,1.62314 7.095769,4.67848 3.06843,3.05533 4.698545,6.96997 1.630109,3.91465 1.630109,8.30669 0,4.29656 -1.630109,8.2112 -1.630115,3.91465 -4.698545,6.96998 -3.06844,3.05534 -7.095769,4.77396 -3.931435,1.62315 -8.24643,1.62315 z M 64.805448,127.44591 q 0,2.86437 1.15067,5.34683 1.15066,2.48246 2.972545,4.39204 1.91778,1.8141 4.41088,2.95985 2.588995,1.05027 5.465654,1.05027 2.87666,0 5.36977,-1.05027 2.588995,-1.14575 4.506765,-3.05533 1.917779,-1.90958 2.972554,-4.39204 1.15066,-2.57794 1.15066,-5.44231 0,-2.86438 -1.15066,-5.44231 -1.054775,-2.57794 -2.972554,-4.39204 -1.91777,-1.90959 -4.506765,-2.95986 -2.49311,-1.14575 -5.36977,-1.14575 -2.876659,0 -5.369759,1.05027 -2.49311,1.05027 -4.41088,2.86438 -1.91778,1.8141 -3.06844,4.29656 -1.054775,2.48246 -1.15067,5.25135 v 0.4774 z"
               style="fill:#ff595e;stroke-width:7.97365"
               id="path6717" />
            <path
               d="m 131.54398,149.11967 q -1.63011,0 -2.78077,-1.05027 -1.05478,-1.14575 -1.05478,-2.76889 v -21.76925 q 0,-4.39204 1.63011,-8.40216 1.63011,-4.01013 4.79444,-7.16094 3.06844,-3.05533 7.09576,-4.67848 4.02733,-1.71862 8.43821,-1.71862 1.6301,0 2.68488,1.14575 1.15066,1.05027 1.15066,2.67341 0,1.62315 -1.15066,2.7689 -1.05478,1.05027 -2.68488,1.05027 -2.97256,0 -5.56155,1.14575 -2.589,1.14575 -4.60266,3.05533 -1.91777,1.90959 -3.06843,4.583 -1.05478,2.57794 -1.05478,5.53779 v 21.76925 q 0,1.62314 -1.15067,2.76889 -1.05477,1.05027 -2.68488,1.05027 z"
               style="fill:#ff595e;stroke-width:7.97365"
               id="path6719" />
            <path
               d="m 179.96783,148.5468 q -4.60265,0 -8.72587,-1.62315 -4.12321,-1.71862 -7.38342,-4.86943 -3.35611,-3.24629 -5.27389,-7.3519 -1.82188,-4.20108 -1.91777,-8.87956 -0.0959,-4.67848 1.53422,-8.87956 1.726,-4.29656 4.98621,-7.63833 3.16433,-3.34177 7.38344,-5.15587 4.2191,-1.81411 8.91764,-2.00507 4.60266,-0.0955 8.91765,1.62315 4.31499,1.62314 7.67109,4.86944 l 0.0959,0.0955 q 1.05477,1.24123 1.05477,2.67342 0,1.43218 -1.05477,2.67341 l -23.7804,24.7291 q 2.20544,1.24123 4.69855,1.71863 2.4931,0.47739 4.9862,0.0955 2.49311,-0.38191 4.79444,-1.52766 2.30133,-1.14575 4.2191,-3.05534 1.15066,-1.14575 2.78078,-1.14575 1.6301,-0.0955 2.78076,0.9548 1.15067,1.14575 1.15067,2.76889 0,1.62315 -1.05477,2.7689 -3.26022,3.34177 -7.47932,5.15587 -4.12322,1.8141 -8.82176,1.90958 -0.19178,0 -0.28767,0.0955 -0.0959,0 -0.19178,0 z m 0,-38.66906 q -3.06843,0 -6.04098,1.24123 -2.87666,1.14575 -5.17799,3.53273 -1.91778,1.90958 -2.97255,4.29656 -1.05478,2.38698 -1.34244,4.86944 -0.19178,2.48246 0.38356,4.96491 0.57533,2.48246 1.91777,4.67848 l 20.80784,-21.57828 q -3.64377,-2.00507 -7.57521,-2.00507 z"
               style="fill:#ff595e;stroke-width:7.97365"
               id="path6721" />
            <path
               d="m 244.59676,149.31063 q -1.63011,0 -2.78077,-1.05027 -1.05478,-1.14575 -1.05478,-2.76889 v -2.19602 q -3.3561,2.95985 -7.47932,4.48752 -4.02732,1.52766 -8.53409,1.52766 -4.79443,0 -9.10943,-1.71862 -4.31499,-1.71863 -7.67109,-4.96492 -3.3561,-3.34177 -5.17799,-7.54285 -1.82188,-4.20108 -1.82188,-8.87956 0,-4.67848 1.82188,-8.87956 1.82189,-4.20109 5.17799,-7.54286 3.3561,-3.34177 7.67109,-5.06039 4.315,-1.71862 9.10943,-1.71862 4.79444,0 9.10942,1.71862 4.315,1.71862 7.6711,5.06039 3.3561,3.34177 5.17799,7.54286 1.82188,4.20108 1.82188,8.87956 0,0.47739 -0.0959,1.05027 0,0.47739 0,1.05027 v 17.18625 q 0,1.62314 -1.15067,2.76889 -1.05478,1.05027 -2.68488,1.05027 z M 224.7478,110.64158 q -3.35611,0 -6.32865,1.24123 -2.87666,1.24122 -5.08211,3.34177 -2.10955,2.10054 -3.45199,4.96491 -1.24655,2.7689 -1.24655,6.01519 0,3.15081 1.24655,6.01518 1.34244,2.7689 3.45199,4.86944 2.20545,2.10054 5.08211,3.34177 2.97254,1.24123 6.32865,1.24123 3.06844,0 5.84921,-1.05027 2.78078,-1.05027 4.89033,-2.86438 2.20543,-1.90958 3.54787,-4.39204 1.43834,-2.57793 1.726,-5.44231 v -3.24629 -0.19096 q -0.28766,-2.86437 -1.726,-5.34683 -1.34244,-2.57794 -3.54787,-4.39204 -2.10955,-1.90958 -4.89033,-2.95985 -2.78077,-1.14575 -5.84921,-1.14575 z"
               style="fill:#ff595e;stroke-width:7.97365"
               id="path6723" />
            <path
               d="m 275.47289,149.31063 q -4.60266,0 -8.82176,-1.62314 -4.12322,-1.71863 -7.47932,-4.77396 v -0.0955 q -3.45199,-3.24629 -5.36976,-7.44737 -1.91778,-4.20108 -2.10956,-9.07052 -0.19177,-4.77396 1.43833,-9.07052 1.63011,-4.39204 4.98621,-7.92477 3.26022,-3.43725 7.47932,-5.34683 4.315,-1.90958 9.10943,-2.10054 4.79444,-0.19096 9.20532,1.52767 4.41088,1.62314 7.86287,4.86943 1.15067,1.05027 1.15067,2.67342 0.0959,1.62314 -0.95889,2.76889 -1.05478,1.14575 -2.68488,1.24123 -1.63012,0 -2.78078,-1.05027 -4.89032,-4.583 -11.50665,-4.39204 -3.26021,0.19096 -6.23276,1.43219 -2.87666,1.24123 -5.0821,3.62821 -4.60266,4.86943 -4.31499,11.55297 0.19178,6.58806 5.0821,11.17106 2.39722,2.2915 5.36976,3.43725 3.06844,1.05027 6.13688,0.95479 3.06844,-0.0955 6.04099,-1.3367 2.97255,-1.33671 5.27388,-3.72369 1.05478,-1.14575 2.589,-1.14575 1.6301,-0.0955 2.78076,0.95479 1.15067,1.05027 1.15067,2.67342 0.0959,1.52766 -0.95889,2.67341 -3.26021,3.53273 -7.5752,5.44231 -4.2191,1.90959 -9.01354,2.10055 z"
               style="fill:#ff595e;stroke-width:7.97365"
               id="path6725" />
            <path
               d="m 317.85566,149.21515 q -4.2191,0 -8.05465,-1.52766 -3.73966,-1.62315 -6.7122,-4.583 -2.97256,-2.95986 -4.60266,-6.68354 -1.53422,-3.72369 -1.53422,-7.92477 V 82.570708 q 0,-1.623145 1.05477,-2.673416 1.15067,-1.14575 2.78078,-1.14575 1.6301,0 2.68488,1.14575 1.15067,1.050271 1.15067,2.673416 v 24.442662 h 13.23263 q 1.63011,0 2.68488,1.14575 1.15067,1.05027 1.15067,2.67342 0,1.62314 -1.15067,2.76889 -1.05477,1.05027 -2.68488,1.05027 h -13.23263 v 13.84448 q 0,2.67341 1.05477,5.06039 1.05478,2.38698 2.78077,4.20108 1.82189,1.71863 4.2191,2.7689 2.39722,1.05027 5.17799,1.05027 1.63011,0 2.68488,1.14575 1.15067,1.05027 1.15067,2.67342 0,1.62314 -1.15067,2.76889 -1.05477,1.05027 -2.68488,1.05027 z"
               style="fill:#ff595e;stroke-width:7.97365"
               id="path6727" />
            <path
               d="m 328.78705,147.78297 q -1.6301,0 -2.78077,-1.05028 -1.05478,-1.14575 -1.05478,-2.76889 v -38.19166 q 0,-1.62314 1.05478,-2.67342 1.15067,-1.14575 2.78077,-1.14575 1.63011,0 2.68488,1.14575 1.15067,1.05028 1.15067,2.67342 v 38.19166 q 0,1.62314 -1.15067,2.76889 -1.05477,1.05028 -2.68488,1.05028 z m 4.2191,-54.709556 q 0,1.718625 -1.24655,2.959854 -1.15066,1.145749 -2.87666,1.145749 -1.72599,0 -2.97255,-1.145749 -1.15067,-1.241229 -1.15067,-2.959854 0,-1.718624 1.15067,-2.864374 1.24656,-1.241229 2.97255,-1.241229 1.726,0 2.87666,1.241229 1.24655,1.14575 1.24655,2.864374 z"
               style="fill:#ff595e;stroke-width:7.97365"
               id="path6729" />
            <path
               d="m 359.95089,149.21515 q -4.89033,0 -9.20532,-1.8141 -4.315,-1.81411 -7.6711,-5.15588 -3.3561,-3.34177 -5.17799,-7.63833 -1.82189,-4.39204 -1.82189,-9.166 0,-4.86943 1.82189,-9.16599 1.82189,-4.29656 5.17799,-7.63833 3.3561,-3.34178 7.6711,-5.15588 4.31499,-1.8141 9.20532,-1.8141 4.79443,0 9.10942,1.8141 4.41088,1.8141 7.76698,5.15588 3.35611,3.34177 5.0821,7.63833 1.82188,4.29656 1.82188,9.16599 0,4.77396 -1.82188,9.166 -1.72599,4.29656 -5.0821,7.63833 -3.3561,3.34177 -7.76698,5.15588 -4.31499,1.8141 -9.10942,1.8141 z m 0,-39.8148 q -3.35611,0 -6.32866,1.24123 -2.87666,1.24123 -5.0821,3.43725 -2.20544,2.19602 -3.54788,5.15587 -1.24656,2.86437 -1.24656,6.20614 0,3.34177 1.24656,6.30163 1.34244,2.86437 3.54788,5.06039 2.20544,2.19602 5.0821,3.43725 2.97255,1.24123 6.32866,1.24123 3.3561,0 6.23276,-1.24123 2.97255,-1.24123 5.17799,-3.43725 2.20544,-2.19602 3.45199,-5.06039 1.24655,-2.95986 1.24655,-6.30163 0,-3.34177 -1.24655,-6.20614 -1.24655,-2.95985 -3.45199,-5.15587 -2.20544,-2.19602 -5.17799,-3.43725 -2.87666,-1.24123 -6.23276,-1.24123 z"
               style="fill:#ff595e;stroke-width:7.97365"
               id="path6731" />
            <path
               d="m 427.74412,149.50159 q -1.63011,0 -2.78077,-1.05027 -1.05478,-1.14575 -1.05478,-2.7689 v -22.15116 q 0,-2.95985 -1.15066,-5.63327 -1.15066,-2.67341 -3.16433,-4.583 -2.01366,-2.00506 -4.69854,-3.15081 -2.68489,-1.14575 -5.65744,-1.14575 -3.06844,0 -5.75332,1.14575 -2.58899,1.14575 -4.60266,3.15081 -2.01366,1.90959 -3.16432,4.583 -1.15067,2.67342 -1.15067,5.63327 0,0.19096 0,0 0.0959,-0.28644 0,-0.0955 l -0.0959,22.24664 q 0,1.62314 -1.15067,2.76889 -1.05477,1.05027 -2.68488,1.05027 -1.6301,0 -2.78077,-1.05027 -1.05478,-1.14575 -1.05478,-2.76889 v -22.15117 q 0,-0.19096 0,-0.38191 0.0959,-0.28644 0.0959,-0.4774 0.19177,-4.29656 1.82188,-8.02025 1.72599,-3.81916 4.69855,-6.77902 3.16432,-3.15081 7.19165,-4.77396 4.12321,-1.71862 8.62998,-1.71862 4.50677,0 8.5341,1.71862 4.02732,1.62315 7.19165,4.77396 3.16433,3.15081 4.79443,7.16094 1.726,4.01012 1.82189,8.49764 v 22.15116 q 0,1.62315 -1.15066,2.7689 -1.05478,1.05027 -2.68489,1.05027 z"
               style="fill:#ff595e;stroke-width:7.97365"
               id="path6733" />
            <path
               d="m 478.94873,149.02419 h -40.56092 q -1.53422,0 -2.68488,-1.05027 -1.05477,-1.14575 -1.05477,-2.76889 0,-0.0955 0,-0.0955 0.0959,-0.0955 0.0959,-0.19096 -0.19178,-1.8141 1.15067,-3.15081 l 33.7528,-32.55839 h -31.25972 q -1.53422,0 -2.68488,-1.05027 -1.05477,-1.14575 -1.05477,-2.7689 0,-1.62314 1.05477,-2.67341 1.15066,-1.14575 2.68488,-1.14575 h 40.56092 0.0959 q 0.76711,0 1.34244,0.28644 0.67122,0.28643 1.24655,0.95479 0.0959,0.0955 0.0959,0.0955 0.38355,0.57288 0.67121,1.05027 0.19178,0.76384 0.19178,1.24123 v 0.19096 q 0,0.85931 -0.28766,1.52767 -0.38356,0.66835 -0.76711,1.24123 h -0.0959 l -34.51993,33.32222 h 32.02683 q 1.53422,0 2.589,1.05027 1.05477,1.05027 1.05477,2.67342 0,1.62314 -1.05477,2.76889 -1.05478,1.05027 -2.589,1.05027 z"
               style="fill:#ff595e;stroke-width:7.97365"
               id="path6735" />
         </g>
      </g>
   </g>
</svg>
